<?xml version="1.0" encoding="UTF-8"?>
<!DOCTYPE svg PUBLIC "-//W3C//DTD SVG 1.1//EN" "http://www.w3.org/Graphics/SVG/1.1/DTD/svg11.dtd">
<!-- Creator: CorelDRAW 2020 (64-Bit) -->
<svg xmlns="http://www.w3.org/2000/svg" xml:space="preserve" width="7.5447in" height="2.37532in" version="1.1" style="shape-rendering:geometricPrecision; text-rendering:geometricPrecision; image-rendering:optimizeQuality; fill-rule:evenodd; clip-rule:evenodd"
viewBox="0 0 8429.39 2653.85"
 xmlns:xlink="http://www.w3.org/1999/xlink"
 xmlns:xodm="http://www.corel.com/coreldraw/odm/2003">
 <defs>
  <style type="text/css">
   <![CDATA[
    .fil5 {fill:none;fill-rule:nonzero}
    .fil7 {fill:black}
    .fil8 {fill:#ADADAD}
    .fil6 {fill:black;fill-rule:nonzero}
    .fil4 {fill:#ADADAD;fill-rule:nonzero}
    .fil3 {fill:url(#id0)}
    .fil0 {fill:url(#id1)}
    .fil2 {fill:url(#id2)}
    .fil1 {fill:url(#id3)}
   ]]>
  </style>
  <linearGradient id="id0" gradientUnits="userSpaceOnUse" x1="1064.64" y1="-6.77" x2="1030.03" y2="2360.87">
   <stop offset="0" style="stop-opacity:1; stop-color:#2988BC"/>
   <stop offset="1" style="stop-opacity:1; stop-color:#2F496E"/>
  </linearGradient>
  <linearGradient id="id1" gradientUnits="userSpaceOnUse" xlink:href="#id0" x1="1064.64" y1="-6.77" x2="1030.03" y2="2360.87">
  </linearGradient>
  <linearGradient id="id2" gradientUnits="userSpaceOnUse" xlink:href="#id0" x1="1064.64" y1="-6.77" x2="1030.03" y2="2360.87">
  </linearGradient>
  <linearGradient id="id3" gradientUnits="userSpaceOnUse" xlink:href="#id0" x1="1064.64" y1="-6.77" x2="1030.03" y2="2360.87">
  </linearGradient>
 </defs>
 <g id="Layer_x0020_1">
  <metadata id="CorelCorpID_0Corel-Layer"/>
  <g id="_1157176992">
   <g>
    <path class="fil0" d="M55.13 1089c18.25,13.06 112.05,150.61 272.29,111.37 37.9,-9.29 80.13,-20.88 71.02,-53.88 -36.06,-13.01 -84.3,11.45 -149.19,-20.93 -124.43,-62.09 -151.12,-218.31 -76.78,-339.27 91.5,-148.87 289.49,-149.57 420.62,-15.61 4.22,4.31 8.37,8.07 10.92,11.13 9.12,10.94 3.42,2.3 8.28,12.66 5.12,2.03 0.65,-1.1 7.49,5.16 1.76,1.61 6.18,6.64 8.7,9.67 6.18,7.44 9.37,10.43 11.55,19.72 7.82,5.16 0.54,-1.31 8.87,7.75 46.7,50.79 101.34,197.54 114.6,266.93 72.51,379.38 -118.35,688 -92.79,1053.89 25.8,193.43 63.1,298.92 159.9,457.95 11.67,19.17 22.51,50.25 47.34,33.52 12.6,-25.67 -49.11,-106.68 -49.85,-141.7 -19.27,-16.89 -48.94,-137.11 -56.66,-173.16 -36.8,-171.8 -20.12,-341.09 26.44,-508.48l24.36 -79.49c5.49,-11.34 0.46,-2.06 4.76,-7.53 -1.44,-17.02 27.24,-111.51 33.65,-138.33 12.04,-50.4 21.48,-97.64 29.15,-148.8 16.19,-108.09 22.81,-214.82 11,-325.96 -28.5,-268.11 -204,-554.45 -462.02,-593.21 -105.95,-15.92 -213.91,14.25 -283.16,63.16 -146.23,103.28 -206.04,308.18 -106.37,478.75 6.66,11.39 4.41,4.02 5.9,14.69z"/>
    <path class="fil1" d="M953.86 786.36c12.22,12.36 64.57,181.81 73.68,211.82 24.18,79.66 41.15,152.51 45.02,242.07 5.57,128.82 -10.69,324.03 -45.51,452.08 -4.51,16.61 -19.83,43.89 -7.78,57.37 28.77,29.45 63.64,-84.59 74.06,-112.95 53.08,-144.48 88.09,-361.31 74.74,-515.17 -19.23,-221.59 -141.29,-465.75 -134.59,-661.69 11.52,-336.63 295.21,-365.12 425.88,-270.58 71.22,51.53 132.76,153.68 94.71,277.21 -17.88,58.05 -44.86,94.04 -78.53,121.25 -18.5,14.95 -38.14,26.32 -64.44,35.23 -23.65,8.01 -62.62,9.39 -77.81,21.4l-0.45 18.89c34.91,23.88 120.39,6.23 157.35,-8.82 90.33,-36.76 145.73,-120.56 172.71,-211.94 20.88,-70.7 9.48,-107.8 -1.58,-174.93 -12.49,-17.58 -28.53,-117.06 -139.57,-196.34 -126.95,-90.63 -209.06,-61.01 -270.95,-71.27 -11.68,7.92 -61.77,14.48 -80.21,20.56 -175.78,57.99 -268.27,215.48 -277.62,406.05 -5.86,57.79 5.1,138.46 17.05,193.64 6.88,31.76 44.32,150.18 43.82,166.11z"/>
    <path class="fil2" d="M1752.47 941.52c-16.63,-6.52 -30.87,-17.4 -46.96,-25.54 -51.41,-26.03 -115.08,-36.72 -173.58,-27.81 -211.8,32.23 -299.17,241.39 -217,414.43 9.05,19.07 42.51,82.73 64.92,62.5 20.81,-19.22 -25.16,-56.61 -19.1,-150.71 20.48,-317.72 463.09,-239.81 378.83,69.75 -26.66,97.96 -89.11,155.65 -145.73,206.11 -80.52,71.77 -214.8,153.91 -313.32,215.51 -189.49,118.48 -299.31,316.98 -283.49,596.08 3.64,28.91 -2.52,65.9 33,59.03 30.8,-52.2 -38.68,-377.84 325.66,-576.26 178.4,-97.15 407.02,-219.73 489.76,-408.96 62.94,-143.93 43.65,-323.43 -74.74,-417.84 -4.3,-3.43 -6.41,-4.53 -10.49,-8.03 -3.22,-2.76 -3.02,-2.8 -5.08,-4.92 -0.27,-0.27 -0.47,-1.47 -1.37,-1.67 -0.89,-0.19 -0.9,-1.09 -1.3,-1.68z"/>
    <path class="fil3" d="M69.51 1689.53c9.32,19.78 10.18,45.78 40.76,103.88 16.42,31.19 40.92,64.25 59.87,88.18 28.93,36.54 74.07,82.16 108.69,113.16 13.31,11.91 23.92,19.52 38.74,35.26 77.43,82.26 136.48,148.38 191.19,252.62 31.09,59.24 35.55,89.62 64.71,70.42 6.22,-37.13 -35.58,-146.25 -49.76,-177.95 -96.08,-214.75 -189.61,-248.44 -287.52,-403.95 -29.08,-46.19 -59,-111.32 -44.73,-182.02 22.27,-110.37 137.9,-212.94 258.76,-98.58 88.74,83.97 46.42,151.09 76.35,157.92 19.6,-1.68 21,-8.83 26.1,-26.9 20.1,-71.32 -10.25,-111.11 -10.06,-140.04 -3.08,-3.04 -2.56,-2.44 -5.76,-7.01 -0.51,-0.73 -1.11,-1.65 -1.61,-2.42 -30.61,-47.27 -45.15,-81.83 -113.72,-119.17 -146.01,-79.51 -388.66,46.64 -351.99,336.59z"/>
   </g>
   <path class="fil4" d="M2249.21 1694.27l-145.68 0 0 -739.85 554.17 0 0 147.11 -408.49 0 0 179.96c32.37,-19.04 68.32,-30.94 107.84,-35.71 39.52,-4.76 80.7,-7.14 123.55,-7.14l79.99 0 0 147.11 -79.99 0c-34.28,0 -62.61,0.71 -84.98,2.14 -22.38,1.43 -41.66,3.57 -57.85,6.43 -16.19,2.86 -30.94,7.14 -44.28,12.85 -13.33,5.71 -28.09,12.86 -44.28,21.43l0 265.66z"/>
   <polygon class="fil4" points="2901.94,1694.27 2901.94,954.42 3054.76,954.42 3054.76,1545.73 3447.54,1545.73 3447.54,1694.27 "/>
   <path class="fil4" d="M4310.22 1318.63c0,-40.95 -8.09,-76.41 -24.28,-106.41 -16.19,-29.99 -37.38,-54.75 -64.04,-74.27 -26.66,-19.52 -56.65,-33.8 -90.46,-42.85 -33.8,-9.05 -68.08,-13.57 -103.31,-13.57 -36.18,0 -70.94,4.76 -104.74,14.28 -33.57,9.52 -63.56,24.28 -89.75,44.28 -26.19,20 -47.13,45.23 -63.32,75.7 -16.19,30.47 -24.28,66.66 -24.28,108.55 0,41.9 8.09,78.08 24.28,108.55 16.19,30.47 37.38,55.7 64.04,75.7 26.66,20 56.65,34.75 90.46,44.28 33.8,9.52 68.56,14.28 104.74,14.28 35.23,0 69.27,-5.48 102.6,-16.42 33.32,-10.95 63.08,-26.9 89.74,-47.85 26.66,-20.95 47.85,-46.89 64.04,-77.84 16.19,-30.94 24.28,-66.42 24.28,-106.4zm155.68 -1.43c0,62.84 -12.38,119.02 -37.13,168.53 -24.76,49.52 -57.61,91.41 -98.08,125.69 -40.47,34.28 -87.12,60.46 -140.21,78.56 -52.85,18.09 -107.6,27.14 -163.78,27.14 -56.18,0 -110.69,-8.81 -163.06,-26.42 -52.37,-17.62 -99.03,-43.32 -139.49,-77.13 -40.47,-33.8 -73.08,-75.22 -97.36,-124.26 -24.28,-49.04 -36.42,-104.98 -36.42,-167.82 0,-62.84 12.38,-118.55 37.13,-167.11 24.76,-48.56 57.85,-89.5 98.79,-122.83 40.94,-33.33 87.84,-58.56 140.21,-75.7 52.37,-17.14 106.41,-25.71 161.63,-25.71 55.23,0 109.5,8.09 162.35,24.28 53.08,16.19 99.74,40.47 140.21,72.84 40.47,32.37 73.32,72.84 98.08,121.4 24.76,48.56 37.13,104.74 37.13,168.54z"/>
   <path class="fil5" d="M5514.37 1051.77l35.61 -97.35 157.11 0 -34.2 97.35m-29.07 82.74l-196.67 559.76 -198.53 0 -92.84 -292.8 -75.7 292.8 -195.67 0 -255.66 -739.85 158.54 0 191.39 542.75 97.12 -349.93 -59.99 -192.82 167.11 0 168.54 542.75 132.65 -362.66"/>
   <polygon class="fil6" points="6244.12,1101.53 6244.12,1694.27 6097.01,1694.27 6097.01,1101.53 5828.49,1101.53 5828.49,954.42 6522.64,954.42 6522.64,1101.53 "/>
   <path class="fil6" d="M7309.62 1471.22c8.57,15.24 18.09,27.38 28.56,35.95 10.47,8.57 21.43,15 32.85,19.28 11.43,4.28 22.61,7.14 33.57,8.57 10.95,1.43 20.71,2.14 29.28,2.14l51.42 0 0 157.11 -64.27 0c-19.04,0 -37.85,-0.95 -56.42,-2.85 -18.57,-1.9 -36.9,-6.67 -54.99,-14.29 -18.09,-7.61 -35.71,-19.28 -52.85,-34.99 -17.14,-15.71 -34.28,-37.37 -51.42,-64.99l-114.26 -185.68 -10 0c-28.56,0 -52.61,0.71 -72.12,2.14 -19.52,1.43 -36.66,4.05 -51.42,7.86 -14.76,3.81 -28.56,8.33 -41.42,13.57 -12.85,5.24 -26.9,11.67 -42.13,19.28l0 259.95 -149.97 0 0 -739.85 477.05 0c34.28,0 65.46,5.47 93.55,16.42 28.09,10.95 52.61,26.42 73.56,46.66 20.95,20 37.13,43.56 48.56,70.7 11.43,27.38 17.14,57.13 17.14,89.51 0,57.37 -14.76,103.55 -44.28,139.02 -29.52,35.23 -71.41,60.94 -125.69,77.13l45.71 77.36zm-108.55 -226.86c21.9,0 41.18,-5.95 57.85,-17.85 16.66,-11.9 24.99,-29.76 24.99,-53.56 0,-16.19 -3.33,-29.04 -10,-38.56 -6.66,-9.52 -15,-16.66 -24.99,-21.43 -10,-4.76 -21.66,-7.85 -35,-9.28 -13.33,-1.43 -26.19,-2.14 -38.56,-2.14l-301.37 0 0 185.68c28.56,-16.19 60.22,-27.38 94.98,-33.57 34.75,-6.19 72.12,-9.28 112.12,-9.28l119.98 0z"/>
   <path class="fil5" d="M8429.39 1134.51l0 269.82c0,54.28 -8.81,101.17 -26.42,140.69 -17.61,39.52 -42.37,71.89 -74.27,97.12 -31.89,25.24 -69.51,44.04 -112.83,56.42 -43.32,12.38 -90.7,18.57 -142.11,18.57l-2.85 0c-51.42,0 -98.79,-6.19 -142.12,-18.57 -43.33,-12.38 -80.94,-31.18 -112.83,-56.42 -31.9,-25.23 -56.65,-57.6 -74.27,-97.12 -17.62,-39.52 -26.42,-86.41 -26.42,-140.69l0 -449.91 147.11 0 0 449.91c0,31.42 5,57.61 15,78.56 10,20.95 24.29,37.85 42.85,50.7 18.57,12.86 40.71,21.9 66.42,27.14 25.71,5.23 54.28,7.86 85.69,7.86 31.42,0 59.99,-2.62 85.7,-7.86 25.71,-5.24 47.85,-14.28 66.42,-27.14 18.57,-12.85 32.85,-29.76 42.85,-50.7 10,-20.95 15,-47.13 15,-78.56l0 -269.82m0 -82.74l0 -97.35 147.11 0 0 97.35"/>
   <path class="fil7" d="M8072.32 1568.58c-31.42,0 -59.99,-2.62 -85.69,-7.86 -25.71,-5.24 -47.85,-14.28 -66.42,-27.14 -18.57,-12.85 -32.85,-29.76 -42.85,-50.7 -10,-20.95 -15,-47.13 -15,-78.56l0 -449.91 -147.11 0 0 449.91c0,54.28 8.81,101.17 26.42,140.69 17.62,39.52 42.37,71.89 74.27,97.12 31.9,25.24 69.51,44.04 112.83,56.42 43.32,12.38 90.7,18.57 142.12,18.57l2.85 0c51.42,0 98.79,-6.19 142.11,-18.57 43.33,-12.38 80.94,-31.18 112.83,-56.42 31.9,-25.23 56.66,-57.6 74.27,-97.12 17.62,-39.52 26.42,-86.41 26.42,-140.69l0 -269.21 -147.11 0 0 269.21c0,31.42 -5,57.61 -15,78.56 -10,20.95 -24.28,37.85 -42.85,50.7 -18.57,12.86 -40.71,21.9 -66.42,27.14 -25.71,5.23 -54.28,7.86 -85.7,7.86z"/>
   <polygon class="fil7" points="8282.28,1047.8 8429.39,1047.8 8429.39,954.42 8282.28,954.42 "/>
   <polygon class="fil8" points="5351.44,1497.17 5182.91,954.42 5015.8,954.42 5075.79,1147.24 4978.66,1497.17 4787.27,954.42 4628.73,954.42 4884.4,1694.27 5080.07,1694.27 5155.77,1401.47 5248.61,1694.27 5447.14,1694.27 5643.6,1135.12 5483.88,1135.12 "/>
   <polygon class="fil8" points="5515.82,1047.8 5674.28,1047.8 5707.09,954.42 5549.97,954.42 "/>
  </g>
 </g>
</svg>
